<svg xmlns="http://www.w3.org/2000/svg" version="1.1" width="1024" height="467">
<rect x="0" y="0" width="1024" height="467" fill="#b09782" />
<g transform="scale(2.000000) translate(0.5 0.5)">
<polygon fill="#592100" fill-opacity="0.501961" points="372.600352,147.366313,400.897527,-16.000000,142.630694,5.229036,143.157154,224.633660" />
<polygon fill="#ffffff" fill-opacity="0.501961" points="359.173111,84.548283,457.905176,249.000000,527.000000,230.495707,510.377767,-16.000000" />
<polygon fill="#ffffff" fill-opacity="0.501961" points="0.660554,116.979835,149.417543,194.364211,130.566911,105.093292,-2.095754,42.236865" />
<polygon fill="#ffffff" fill-opacity="0.501961" points="208.685589,232.729202,-5.056144,243.648588,-16.000000,155.606025,85.744837,199.253954" />
<polygon fill="#ffffff" fill-opacity="0.501961" points="297.356781,100.269156,329.335570,175.686280,419.204500,249.000000,291.893114,181.160663" />
<polygon fill="#983604" fill-opacity="0.501961" points="477.469641,168.963286,391.816700,225.701024,260.036598,108.180192,420.043333,189.552453" />
<polygon fill="#7e7644" fill-opacity="0.501961" points="499.691272,71.760105,505.753436,121.373402,429.711312,42.952405,463.458264,5.613274" />
<polygon fill="#1b2104" fill-opacity="0.501961" points="147.848293,77.333401,189.320379,2.113330,279.793904,-16.000000,312.596437,57.370309" />
<polygon fill="#ffffea" fill-opacity="0.501961" points="426.236073,35.570417,401.062640,19.189873,381.502354,127.611823,527.000000,218.473472" />
<polygon fill="#620f06" fill-opacity="0.501961" points="175.093078,178.606567,278.014820,182.681599,358.536205,249.000000,312.476301,236.717516" />
<polygon fill="#ffffff" fill-opacity="0.501961" points="527.000000,89.892057,475.386030,190.394608,409.917802,220.632561,509.675446,249.000000" />
<polygon fill="#f49a90" fill-opacity="0.501961" points="188.162319,86.517996,290.221595,159.529848,250.494775,192.960970,214.946967,160.546896" />
<polygon fill="#414036" fill-opacity="0.501961" points="155.358444,199.713966,122.037971,204.724031,-15.586896,140.737899,-16.000000,117.473235" />
<polygon fill="#ffffff" fill-opacity="0.501961" points="522.065529,185.449261,527.000000,-16.000000,425.849908,-14.701275,493.042692,42.930733" />
<polygon fill="#000000" fill-opacity="0.501961" points="463.414288,70.863933,468.368209,105.099699,433.104716,29.124602,444.209574,42.687762" />
<polygon fill="#ffffff" fill-opacity="0.501961" points="200.499647,229.647337,1.611270,249.000000,-16.000000,169.749465,90.867321,212.807300" />
<polygon fill="#ffffff" fill-opacity="0.501961" points="345.664656,245.632171,434.399958,243.625374,386.572190,218.419832,357.211223,207.864534" />
<polygon fill="#ffffff" fill-opacity="0.501961" points="-16.000000,41.248080,132.075000,111.433596,131.323557,175.231026,-14.494380,98.861274" />
<polygon fill="#934612" fill-opacity="0.501961" points="293.025655,34.949881,410.894151,157.106191,374.564054,197.343668,312.613234,137.776824" />
<polygon fill="#6d7875" fill-opacity="0.501961" points="-6.658340,-0.561977,200.916355,-16.000000,146.317172,77.369585,120.105944,38.454334" />
<polygon fill="#fffff6" fill-opacity="0.501961" points="433.780443,20.098458,469.824895,83.542523,470.293745,32.119412,489.191867,76.561463" />
<polygon fill="#605315" fill-opacity="0.501961" points="300.396020,44.068651,390.161183,89.047075,401.571749,29.756358,359.967700,-16.000000" />
<polygon fill="#523000" fill-opacity="0.501961" points="436.537285,209.423417,481.681377,173.803299,511.259368,108.560501,480.613067,183.214519" />
<polygon fill="#67170a" fill-opacity="0.501961" points="142.840220,169.806485,216.619669,217.366962,207.126761,249.000000,137.262901,121.863863" />
<polygon fill="#090200" fill-opacity="0.501961" points="416.838131,-16.000000,460.715166,23.751263,509.066216,93.542454,467.533922,20.275881" />
<polygon fill="#ffffff" fill-opacity="0.501961" points="292.601659,185.023745,286.626781,179.987147,306.350904,150.066722,352.968980,197.145019" />
<polygon fill="#4f2409" fill-opacity="0.501961" points="456.127671,249.000000,389.676717,203.477927,469.306784,196.280247,385.584529,218.686913" />
<polygon fill="#ffffff" fill-opacity="0.501961" points="404.304493,213.370971,411.700223,213.673932,527.000000,191.698989,460.297550,249.000000" />
<polygon fill="#c5cbc9" fill-opacity="0.501961" points="157.301450,59.062497,145.207967,94.847539,90.794064,77.065548,100.030445,35.924217" />
<polygon fill="#ffffee" fill-opacity="0.501961" points="414.862392,-15.625923,473.251354,69.638516,404.871570,2.284568,476.398510,40.308888" />
<polygon fill="#fff4f6" fill-opacity="0.501961" points="272.916282,240.972315,242.345730,224.328197,256.718877,215.527782,275.978700,191.745027" />
<polygon fill="#d9b3aa" fill-opacity="0.501961" points="138.086580,206.969092,161.258720,229.249201,162.256802,156.506319,205.788853,139.157774" />
<polygon fill="#e2a064" fill-opacity="0.501961" points="355.543952,139.413098,325.876683,61.194489,393.675252,77.152250,348.435461,108.137743" />
<polygon fill="#a82010" fill-opacity="0.501961" points="347.926027,236.259479,354.190081,210.051738,337.715370,189.973081,339.117943,249.000000" />
<polygon fill="#7a0000" fill-opacity="0.501961" points="318.109915,206.465171,327.033688,200.259097,317.530253,191.668747,296.158735,188.330916" />
<polygon fill="#271d00" fill-opacity="0.501961" points="454.534012,38.522061,482.806381,81.578016,461.715130,38.586618,423.501013,5.255467" />
<polygon fill="#060000" fill-opacity="0.501961" points="477.865660,37.335539,499.744365,112.360207,499.965894,107.828943,498.291140,77.084022" />
<polygon fill="#ffbaab" fill-opacity="0.501961" points="299.469680,114.937216,240.965650,90.653177,296.300078,128.049207,343.673665,179.345430" />
<polygon fill="#ffffd6" fill-opacity="0.501961" points="483.640336,174.513395,442.240704,48.935430,405.385859,18.770587,379.370745,120.536575" />
<polygon fill="#380000" fill-opacity="0.501961" points="230.886478,211.438944,249.688857,189.261379,185.873643,152.824393,251.305765,215.039182" />
<polygon fill="#fffae9" fill-opacity="0.501961" points="174.377894,14.928445,147.515926,79.829432,163.041682,39.119518,202.970910,-12.792849" />
<polygon fill="#ffffe7" fill-opacity="0.501961" points="489.034908,121.961338,473.424865,43.156577,488.537685,69.556116,497.841244,143.687013" />
<polygon fill="#ffffff" fill-opacity="0.501961" points="503.723702,69.229092,506.574724,249.000000,527.000000,-0.792981,453.854379,-4.763575" />
<polygon fill="#4f1707" fill-opacity="0.501961" points="138.378116,139.618257,143.180380,155.272625,180.437643,78.807211,149.550063,77.102830" />
<polygon fill="#3b3406" fill-opacity="0.501961" points="398.848699,10.091564,450.051499,55.064227,440.876320,33.972274,448.821944,38.633029" />
<polygon fill="#fec4b5" fill-opacity="0.501961" points="275.795532,126.774409,220.253301,89.799351,289.411873,145.734652,278.231191,157.509071" />
<polygon fill="#4f1200" fill-opacity="0.501961" points="237.877746,146.172773,252.984315,142.413433,270.833575,154.809716,254.109274,166.600951" />
<polygon fill="#ffffff" fill-opacity="0.501961" points="337.417294,188.705254,335.034822,230.845537,304.632101,143.401692,290.633714,186.260369" />
<polygon fill="#554d44" fill-opacity="0.501961" points="140.069398,14.197066,158.209339,43.322323,142.772487,43.261116,73.136372,16.198687" />
<polygon fill="#ffffff" fill-opacity="0.501961" points="346.838273,236.486325,363.351723,249.000000,442.065556,247.844921,359.661342,203.472961" />
<polygon fill="#170400" fill-opacity="0.501961" points="314.568920,98.107004,335.636104,24.608537,376.247845,7.018147,337.791363,38.756067" />
<polygon fill="#d27f65" fill-opacity="0.501961" points="227.430792,137.488946,228.605757,68.038166,177.114790,136.846278,140.946797,80.776159" />
<polygon fill="#ffffff" fill-opacity="0.501961" points="194.501848,249.000000,176.653888,216.064354,6.644821,249.000000,-16.000000,190.340000" />
<polygon fill="#ffffd1" fill-opacity="0.501961" points="371.794994,166.945691,379.085544,165.592259,338.024610,134.846171,358.758193,155.554439" />
<polygon fill="#dd735c" fill-opacity="0.501961" points="197.660926,204.481595,129.821764,184.348853,209.553365,191.849237,261.319238,249.000000" />
<polygon fill="#cab884" fill-opacity="0.501961" points="426.920052,205.020739,416.156076,164.836137,410.023803,156.158314,382.836423,196.907043" />
<polygon fill="#fffff7" fill-opacity="0.501961" points="82.384935,79.340437,-16.000000,79.887574,73.140061,125.641473,165.064645,209.513032" />
<polygon fill="#626033" fill-opacity="0.501961" points="448.979705,188.934052,385.192316,216.167500,460.522858,171.340594,474.143142,165.810357" />
<polygon fill="#282307" fill-opacity="0.501961" points="466.634221,81.607413,464.012839,108.023709,451.115448,55.057301,415.549510,18.024427" />
<polygon fill="#5e0f00" fill-opacity="0.501961" points="284.757983,177.534358,242.234309,189.268641,277.326011,199.438958,292.974509,249.000000" />
<polygon fill="#570e00" fill-opacity="0.501961" points="229.881716,125.124866,246.927929,141.311205,230.765028,100.914300,280.161792,144.228361" />
<polygon fill="#f9d9b0" fill-opacity="0.501961" points="299.413338,42.604935,306.098979,9.832101,301.145611,-15.194742,320.943866,-16.000000" />
<polygon fill="#463612" fill-opacity="0.501961" points="472.296571,53.752741,476.482173,70.574323,483.918523,90.182271,481.175753,117.710293" />
<polygon fill="#fdc6bf" fill-opacity="0.501961" points="221.241169,170.395594,257.613824,182.956128,227.121128,164.459582,197.526049,91.039753" />
<polygon fill="#350600" fill-opacity="0.501961" points="197.959314,123.050736,191.405244,141.699074,243.731304,194.107910,229.464472,202.522599" />
<polygon fill="#ffffe8" fill-opacity="0.501961" points="476.292021,46.718508,461.198523,25.581964,439.813322,7.314306,486.001605,77.897399" />
<polygon fill="#ffffd5" fill-opacity="0.501961" points="458.131207,41.690233,414.039981,4.364114,380.132355,21.162844,411.575554,15.894709" />
<polygon fill="#ffffff" fill-opacity="0.501961" points="527.000000,233.663699,421.211826,249.000000,498.305763,157.161322,516.719406,60.071596" />
<polygon fill="#ffbca8" fill-opacity="0.501961" points="187.780672,187.651673,175.890307,147.144806,175.634466,178.948687,204.988124,166.911186" />
<polygon fill="#ae2b0e" fill-opacity="0.501961" points="362.963272,203.981920,329.240053,173.598341,312.599549,152.178233,384.932527,211.294514" />
<polygon fill="#906e28" fill-opacity="0.501961" points="503.678887,122.511303,473.401987,184.794488,476.556419,186.245772,502.107021,138.184465" />
<polygon fill="#f9d6c0" fill-opacity="0.501961" points="203.232373,142.522853,263.267340,143.584405,276.437607,149.003126,259.431964,135.139140" />
<polygon fill="#572007" fill-opacity="0.501961" points="377.009764,125.933710,350.479622,117.005265,360.694930,137.679030,389.562136,170.138229" />
<polygon fill="#571706" fill-opacity="0.501961" points="227.098456,148.994617,230.252409,151.254937,244.202528,177.431984,226.381147,163.982497" />
<polygon fill="#552f00" fill-opacity="0.501961" points="452.651815,198.806667,407.299025,212.145402,426.786808,211.547614,435.478404,208.882892" />
<polygon fill="#ffffda" fill-opacity="0.501961" points="485.032981,164.847896,477.423728,87.239762,461.097983,48.283691,471.422720,122.297155" />
<polygon fill="#e79587" fill-opacity="0.501961" points="273.403697,163.701385,240.582884,202.436292,261.194260,225.679111,239.443682,159.730332" />
<polygon fill="#fffcd0" fill-opacity="0.501961" points="386.253667,132.163732,519.321085,109.266688,446.223979,181.985186,433.736105,185.771406" />
<polygon fill="#544918" fill-opacity="0.501961" points="419.877664,4.890801,400.149829,-1.977062,457.406926,33.273537,443.617728,20.050887" />
<polygon fill="#2c1f04" fill-opacity="0.501961" points="163.918083,61.875263,257.741129,12.776312,207.934210,-14.181021,176.835785,20.009198" />
<polygon fill="#933d2d" fill-opacity="0.501961" points="235.033011,212.603967,320.861814,206.007378,330.447189,249.000000,340.958979,219.290627" />
<polygon fill="#9f998e" fill-opacity="0.501961" points="188.052181,222.656289,111.020528,214.225836,-14.944812,159.956296,172.747555,206.852260" />
<polygon fill="#a3884d" fill-opacity="0.501961" points="373.650004,138.657266,355.634064,47.090042,402.749162,48.960304,378.260144,107.492014" />
<polygon fill="#5d573a" fill-opacity="0.501961" points="303.514366,96.633430,283.551451,112.330022,308.190133,30.628809,147.157307,66.037629" />
<polygon fill="#9ca4a4" fill-opacity="0.501961" points="-16.000000,11.039597,-4.045881,43.452108,143.664972,113.772346,12.111399,-16.000000" />
<polygon fill="#f8bbac" fill-opacity="0.501961" points="190.613664,143.997780,206.566116,157.349841,170.595581,157.712373,175.724025,147.874487" />
<polygon fill="#e39a87" fill-opacity="0.501961" points="281.032712,185.939949,300.097347,208.494566,288.600130,249.000000,317.819524,202.760861" />
<polygon fill="#631209" fill-opacity="0.501961" points="264.471812,106.100393,283.646035,133.107886,295.596567,166.494394,301.278997,152.140640" />
<polygon fill="#ffffff" fill-opacity="0.501961" points="343.287253,219.218224,304.856681,144.551662,331.634379,183.493336,322.680565,214.056593" />
<polygon fill="#501911" fill-opacity="0.501961" points="158.744034,130.343980,149.641842,183.419510,173.217534,147.433950,160.016369,129.971134" />
<polygon fill="#31140e" fill-opacity="0.501961" points="204.781253,170.149165,197.730617,184.348899,140.880340,170.549874,240.442789,203.057510" />
<polygon fill="#ffffff" fill-opacity="0.501961" points="486.042044,31.367216,522.446988,124.468445,517.269812,-14.124189,425.199830,-16.000000" />
<polygon fill="#553e21" fill-opacity="0.501961" points="297.084396,-16.000000,312.881197,26.575739,329.763350,-1.860360,191.174331,97.198233" />
<polygon fill="#fffcf3" fill-opacity="0.501961" points="137.082167,152.065417,111.450322,154.832363,-16.000000,84.651754,141.559329,114.662501" />
<polygon fill="#ffffff" fill-opacity="0.501961" points="290.310004,249.000000,274.342409,223.353900,287.703925,223.257702,237.112991,221.147932" />
<polygon fill="#d5a08b" fill-opacity="0.501961" points="231.046824,89.312757,182.468460,97.072899,239.996906,96.561055,244.092122,67.074892" />
<polygon fill="#ffc8b4" fill-opacity="0.501961" points="225.641834,206.927946,188.057741,189.323432,201.559426,190.821762,238.303037,208.216564" />
<polygon fill="#ede8dc" fill-opacity="0.501961" points="121.932015,-16.000000,87.721893,42.109372,114.021997,-14.788788,89.619162,7.427083" />
<polygon fill="#ffffdd" fill-opacity="0.501961" points="452.313311,15.716905,386.723108,-16.000000,444.842208,20.053799,480.188827,58.213560" />
<polygon fill="#57461d" fill-opacity="0.501961" points="495.591553,109.611258,488.286694,70.859521,502.813282,74.849212,503.933478,96.215374" />
<polygon fill="#5d2c19" fill-opacity="0.501961" points="161.791459,203.608058,142.118450,106.161538,139.233524,159.487219,144.123414,176.949261" />
<polygon fill="#e5a890" fill-opacity="0.501961" points="112.493754,139.522839,163.905918,170.015391,157.804868,196.002301,156.502777,158.382049" />
<polygon fill="#591211" fill-opacity="0.501961" points="436.119215,234.488944,400.786910,211.628183,385.328565,210.369591,426.070368,240.890290" />
<polygon fill="#5e2313" fill-opacity="0.501961" points="283.144381,243.242780,299.159982,212.892363,264.378200,220.678773,286.607602,193.974211" />
<polygon fill="#902c12" fill-opacity="0.501961" points="271.940834,109.740030,200.051281,99.563458,211.958425,119.865362,216.447812,94.335263" />
<polygon fill="#6c1909" fill-opacity="0.501961" points="240.671989,245.401517,188.480907,249.000000,211.964493,212.383985,177.487299,196.969668" />
<polygon fill="#ffffff" fill-opacity="0.501961" points="527.000000,230.870591,446.940372,246.657558,416.141160,215.946368,500.527754,181.560085" />
<polygon fill="#66200c" fill-opacity="0.501961" points="174.121913,66.700419,141.560136,140.159686,166.328346,100.103468,181.323653,136.821016" />
<polygon fill="#f1faee" fill-opacity="0.501961" points="297.564164,108.364043,294.031956,129.000143,306.375640,125.056974,293.130924,83.020897" />
<polygon fill="#180900" fill-opacity="0.501961" points="331.462944,-16.000000,331.371852,-4.398381,308.890104,30.132879,308.285609,21.487623" />
<polygon fill="#0b0400" fill-opacity="0.501961" points="364.973693,-3.679435,375.473007,-15.289557,339.864848,5.486170,321.697573,25.262353" />
<polygon fill="#4d3b09" fill-opacity="0.501961" points="466.100307,192.307326,444.696529,203.547457,476.457619,177.635401,481.715855,179.061642" />
<polygon fill="#efb4a8" fill-opacity="0.501961" points="225.950126,122.282475,217.852937,103.075423,214.656662,165.168468,224.747359,167.711067" />
<polygon fill="#796e5e" fill-opacity="0.501961" points="164.772517,209.121903,120.856223,205.905801,32.527468,167.462579,117.617644,171.487841" />
<polygon fill="#fffff6" fill-opacity="0.501961" points="218.796811,220.649440,214.635935,224.544184,257.711753,249.000000,218.185079,220.860960" />
<polygon fill="#f2ece4" fill-opacity="0.501961" points="141.730872,69.354070,109.129639,52.052318,99.371302,60.020032,139.667808,74.866857" />
<polygon fill="#56544e" fill-opacity="0.501961" points="49.054174,15.845523,89.452866,-15.798801,52.293583,50.196021,75.864307,-16.000000" />
<polygon fill="#2b1f06" fill-opacity="0.501961" points="491.079744,60.195988,477.323750,33.770612,426.844584,-13.385892,457.973368,21.502410" />
<polygon fill="#e6b4a4" fill-opacity="0.501961" points="262.796758,113.337549,255.854726,111.890576,287.003913,148.504269,279.605605,131.538183" />
<polygon fill="#fff6d5" fill-opacity="0.501961" points="440.297383,48.867457,393.002128,11.032897,475.674358,182.321805,453.122896,68.808952" />
<polygon fill="#efa97e" fill-opacity="0.501961" points="398.600054,149.426005,353.884297,83.811298,328.183509,62.897795,359.749856,74.969872" />
<polygon fill="#665f54" fill-opacity="0.501961" points="138.437359,80.234615,164.018381,27.531473,129.915955,129.427004,135.254064,114.334973" />
<polygon fill="#c64e2a" fill-opacity="0.501961" points="255.032627,249.000000,229.975432,228.709957,196.745538,204.288480,294.501723,249.000000" />
<polygon fill="#fffcd3" fill-opacity="0.501961" points="442.661872,38.377008,375.949068,-16.000000,450.051034,32.683139,479.199056,86.196680" />
<polygon fill="#565854" fill-opacity="0.501961" points="104.523303,30.525423,83.001204,78.230876,95.810238,31.351506,109.571056,7.791693" />
<polygon fill="#4e4c46" fill-opacity="0.501961" points="66.078289,48.422050,77.224994,12.108169,93.883448,-9.409736,73.463059,38.648149" />
<polygon fill="#fffff4" fill-opacity="0.501961" points="184.431126,5.038752,195.745798,-7.375428,161.371069,43.815947,164.451875,36.148600" />
<polygon fill="#fff6c8" fill-opacity="0.501961" points="472.869211,182.429426,487.785907,84.928488,494.329820,144.619373,435.806212,205.043692" />
<polygon fill="#ece5e0" fill-opacity="0.501961" points="265.128955,207.981862,281.543948,208.131183,274.108756,197.191881,268.286978,198.773368" />
<polygon fill="#99250c" fill-opacity="0.501961" points="337.045449,172.659912,303.524494,145.381582,238.854786,98.153563,270.675928,108.360475" />
<polygon fill="#6b2c17" fill-opacity="0.501961" points="233.936410,183.125758,278.126839,182.238258,263.198593,207.157897,250.195516,190.902399" />
<polygon fill="#8b280a" fill-opacity="0.501961" points="318.471569,204.368392,290.831062,188.918585,325.719546,193.372115,325.800049,198.444353" />
<polygon fill="#db8870" fill-opacity="0.501961" points="179.262626,123.959755,184.594973,79.809586,188.354606,141.126113,157.112406,121.815169" />
<polygon fill="#53504a" fill-opacity="0.501961" points="62.765941,4.150948,58.765379,-2.266744,46.366165,27.006003,46.053149,39.584656" />
<polygon fill="#ffffff" fill-opacity="0.501961" points="444.070712,249.000000,351.090263,204.585937,358.130865,222.139777,341.619556,238.461120" />
<polygon fill="#21170b" fill-opacity="0.501961" points="104.206422,-16.000000,169.203651,16.769480,127.890073,1.272229,117.031794,-16.000000" />
<polygon fill="#5e301f" fill-opacity="0.501961" points="241.391671,137.020391,231.750315,136.414638,222.959339,114.953401,225.029691,112.809663" />
<polygon fill="#8e301e" fill-opacity="0.501961" points="343.687314,207.758248,333.685824,200.569462,348.295523,199.631165,355.239611,217.595712" />
<polygon fill="#cdccc5" fill-opacity="0.501961" points="102.609455,-16.000000,71.235867,42.653966,69.880650,59.952972,96.813014,1.433460" />
<polygon fill="#290e00" fill-opacity="0.501961" points="226.499442,-16.000000,218.222550,56.536053,199.262512,88.349723,207.746667,96.728561" />
<polygon fill="#6f3524" fill-opacity="0.501961" points="152.403687,192.947412,174.289110,196.386077,169.372624,156.455728,191.895505,222.489858" />
<polygon fill="#484029" fill-opacity="0.501961" points="432.534941,10.609662,469.614569,49.816773,485.411961,109.161022,466.650810,53.792903" />
<polygon fill="#ffffff" fill-opacity="0.501961" points="336.137118,182.984517,312.011549,154.177834,288.544186,173.462027,291.456838,187.265551" />
<polygon fill="#662a08" fill-opacity="0.501961" points="330.634941,153.309285,377.658705,176.809699,344.920274,143.400070,361.167350,185.527620" />
<polygon fill="#ffffd5" fill-opacity="0.501961" points="400.496305,171.128078,433.804238,179.401283,399.814789,183.400187,438.902021,163.712630" />
<polygon fill="#97512a" fill-opacity="0.501961" points="337.105875,138.112094,392.542189,167.479065,417.708109,169.459065,384.593732,141.552883" />
<polygon fill="#c9c8c0" fill-opacity="0.501961" points="71.699652,28.306745,89.540864,-16.000000,67.446647,21.869512,55.868987,51.445465" />
<polygon fill="#e6c275" fill-opacity="0.501961" points="500.052318,63.359184,501.456542,127.847358,502.311589,89.463285,484.838052,43.072311" />
<polygon fill="#35270e" fill-opacity="0.501961" points="454.378185,51.860144,433.107670,33.831021,465.531253,83.478380,465.898108,110.532370" />
<polygon fill="#7b4b22" fill-opacity="0.501961" points="349.919337,95.659997,321.990204,71.130101,279.413200,-8.064018,307.879687,134.439453" />
<polygon fill="#413c1a" fill-opacity="0.501961" points="411.112356,16.852963,445.975405,43.297272,407.459954,22.901206,403.354525,20.071349" />
<polygon fill="#bd9c6d" fill-opacity="0.501961" points="301.653319,47.168313,300.405448,38.881642,293.459221,99.227387,301.971372,71.703118" />
<polygon fill="#c28552" fill-opacity="0.501961" points="359.333929,132.982164,348.032422,111.978527,354.336957,150.012531,315.869106,96.165980" />
<polygon fill="#ffffff" fill-opacity="0.501961" points="2.344610,249.000000,-16.000000,173.074003,69.859068,219.358591,195.361175,232.779980" />
<polygon fill="#090000" fill-opacity="0.501961" points="147.958862,119.661146,150.972739,143.004950,148.812522,150.596638,139.080382,147.534848" />
<polygon fill="#504b44" fill-opacity="0.501961" points="30.602104,38.011256,51.638697,-16.000000,53.316981,-16.000000,61.505364,-16.000000" />
<polygon fill="#ffffff" fill-opacity="0.501961" points="527.000000,160.785058,456.699748,245.149700,401.793622,211.558742,426.946059,214.356034" />
<polygon fill="#e3ac98" fill-opacity="0.501961" points="262.135040,184.690203,268.904220,143.438762,288.259156,159.499469,280.739901,133.190123" />
<polygon fill="#e5ccc1" fill-opacity="0.501961" points="260.148643,199.118800,250.245492,214.884540,273.826262,236.089319,242.894612,205.837853" />
<polygon fill="#ffffd7" fill-opacity="0.501961" points="477.042932,67.894387,465.882533,31.553766,492.807833,88.382740,491.306893,111.082025" />
<polygon fill="#615a50" fill-opacity="0.501961" points="36.488953,2.512115,53.953838,-16.000000,34.967762,-12.192992,18.425419,43.491412" />
<polygon fill="#cdcbc2" fill-opacity="0.501961" points="60.130716,12.462567,49.369214,33.306856,54.220891,35.539645,76.744692,-13.926131" />
<polygon fill="#ffffff" fill-opacity="0.501961" points="308.325429,8.625439,324.710715,-16.000000,304.280475,0.233500,294.226042,-16.000000" />
<polygon fill="#b8876e" fill-opacity="0.501961" points="274.949186,110.612273,216.758341,88.105856,227.316110,42.995328,211.925014,76.645410" />
<polygon fill="#c2784b" fill-opacity="0.501961" points="327.275771,3.685392,312.885616,21.658683,308.833594,54.515197,308.006650,66.387985" />
<polygon fill="#4d0f01" fill-opacity="0.501961" points="189.154662,99.776142,212.079575,193.418721,206.201600,141.366588,203.550536,135.436189" />
<polygon fill="#b84d38" fill-opacity="0.501961" points="282.557781,184.043592,236.660094,164.513363,248.615906,179.074170,302.194403,158.708880" />
<polygon fill="#5b5951" fill-opacity="0.501961" points="74.331407,62.276770,103.165447,6.188002,103.023827,-8.318539,84.062858,28.313877" />
<polygon fill="#babbb6" fill-opacity="0.501961" points="174.931390,196.172756,67.284883,156.017810,4.448234,124.347653,-16.000000,108.074625" />
<polygon fill="#7a7658" fill-opacity="0.501961" points="247.011226,86.971231,255.579641,54.791466,297.671230,118.968931,208.831085,72.149146" />
<polygon fill="#564b3b" fill-opacity="0.501961" points="139.326274,194.184954,13.717488,134.127451,-16.000000,119.364494,9.837248,143.585600" />
<polygon fill="#fdc3c2" fill-opacity="0.501961" points="272.489852,180.120373,244.493218,181.141963,240.245433,179.020266,226.957217,172.620973" />
<polygon fill="#f3b69b" fill-opacity="0.501961" points="150.595211,137.185673,157.058452,137.203260,155.715761,149.202540,152.963658,152.251702" />
<polygon fill="#ad9d8d" fill-opacity="0.501961" points="149.026710,4.044233,171.181648,15.748756,194.961626,-16.000000,250.485584,-16.000000" />
<polygon fill="#c3725e" fill-opacity="0.501961" points="289.667320,219.854031,232.625952,210.724123,164.441536,185.706388,229.490845,222.490535" />
<polygon fill="#341400" fill-opacity="0.501961" points="312.362903,55.659983,317.100436,33.556013,321.388124,26.925364,337.855264,7.821095" />
<polygon fill="#c3b890" fill-opacity="0.501961" points="408.227710,200.717025,365.786275,183.872058,415.982137,195.133077,442.937157,199.396875" />
<polygon fill="#ffe1b6" fill-opacity="0.501961" points="352.640716,144.696976,379.439825,170.306066,352.387231,150.808626,345.195822,139.257620" />
<polygon fill="#c6a962" fill-opacity="0.501961" points="333.403435,-16.000000,329.113762,10.256206,377.814991,-16.000000,406.652510,7.150354" />
<polygon fill="#231904" fill-opacity="0.501961" points="175.302145,35.817072,163.825680,75.909419,171.992030,91.231956,151.736927,89.369596" />
<polygon fill="#2b2200" fill-opacity="0.501961" points="387.147703,13.210474,388.035053,8.115052,358.079030,12.220299,331.110462,31.338437" />
<polygon fill="#591c09" fill-opacity="0.501961" points="264.692244,148.281217,261.550186,161.157053,288.048397,159.086017,264.803050,156.855016" />
<polygon fill="#775c20" fill-opacity="0.501961" points="491.415976,161.009625,496.255540,134.307413,502.367090,131.575145,502.780607,133.764237" />
<polygon fill="#fff5cc" fill-opacity="0.501961" points="472.888815,70.223413,479.184485,124.115286,459.051889,63.052469,441.643479,32.585815" />
<polygon fill="#8c8362" fill-opacity="0.501961" points="228.325763,69.526499,225.011618,90.457130,235.470543,60.945023,240.891279,13.406657" />
<polygon fill="#f0eae0" fill-opacity="0.501961" points="71.796429,70.263870,52.701656,77.520889,62.594950,38.582385,55.238872,110.626224" />
<polygon fill="#fff9d9" fill-opacity="0.501961" points="462.883302,153.965234,412.911373,35.079358,375.224797,107.906261,419.554297,161.336201" />
<polygon fill="#ca6b59" fill-opacity="0.501961" points="235.088840,91.426089,182.291254,105.610605,176.912541,83.591117,201.269709,92.112224" />
<polygon fill="#deb76c" fill-opacity="0.501961" points="458.776065,11.089187,477.187932,22.306034,478.946051,32.163283,497.213961,61.417402" />
<polygon fill="#fffffe" fill-opacity="0.501961" points="340.822070,228.055167,300.277690,144.380742,341.567448,191.579269,330.676025,210.650287" />
<polygon fill="#a37040" fill-opacity="0.501961" points="428.130956,175.902689,423.389167,174.938840,429.013046,171.401568,400.655834,176.556054" />
<polygon fill="#9a9389" fill-opacity="0.501961" points="171.278547,96.612710,154.697986,88.021258,128.002357,113.719228,107.479855,84.437176" />
<polygon fill="#d1cac0" fill-opacity="0.501961" points="29.579403,85.857588,37.630849,28.725655,62.975795,-15.193424,45.899502,26.179056" />
<polygon fill="#635d39" fill-opacity="0.501961" points="458.132038,182.114059,471.687302,160.111778,431.749929,196.466454,409.612773,191.073705" />
<polygon fill="#32270c" fill-opacity="0.501961" points="238.220453,97.998902,255.478205,33.987117,254.324353,58.710891,242.714018,89.915268" />
<polygon fill="#422300" fill-opacity="0.501961" points="298.462979,81.027738,301.053225,69.268269,304.728931,31.887720,317.492838,8.974244" />
<polygon fill="#ffc8b4" fill-opacity="0.501961" points="314.587539,206.725055,301.713240,205.084978,290.391913,197.518075,312.521569,199.133741" />
<polygon fill="#ffbbb8" fill-opacity="0.501961" points="280.175326,166.414940,258.022933,170.321516,265.122493,164.304981,284.983768,158.127083" />
<polygon fill="#c7c0b7" fill-opacity="0.501961" points="84.772717,102.740742,103.430220,30.611515,132.474834,-10.049491,109.200305,31.476309" />
<polygon fill="#af5747" fill-opacity="0.501961" points="315.123629,209.731778,276.260438,194.502640,343.033702,236.555660,350.008392,225.921787" />
<polygon fill="#953b28" fill-opacity="0.501961" points="179.097971,156.825098,196.014219,155.913279,185.060715,187.492720,180.203465,157.806014" />
<polygon fill="#5c4328" fill-opacity="0.501961" points="299.347281,14.319169,292.556939,113.023023,288.991828,119.304385,268.992773,-16.000000" />
<polygon fill="#716939" fill-opacity="0.501961" points="393.791627,72.788772,396.785730,23.318305,382.764357,-0.522693,345.388999,57.794181" />
<polygon fill="#cfc8bc" fill-opacity="0.501961" points="147.814987,225.339240,181.992309,220.881130,164.194718,214.087179,66.130381,210.134477" />
<polygon fill="#c9c8c1" fill-opacity="0.501961" points="78.042298,55.757314,81.708994,111.929780,82.395065,77.360580,95.470005,28.629024" />
<polygon fill="#403e31" fill-opacity="0.501961" points="487.168455,50.423197,484.231419,57.625639,496.058975,108.580044,500.805577,99.712676" />
<polygon fill="#f9f2e7" fill-opacity="0.501961" points="45.288770,82.393689,51.630960,38.026431,26.458524,126.118608,-11.465329,46.945857" />
<polygon fill="#f69079" fill-opacity="0.501961" points="318.349928,144.951591,332.512532,158.452630,356.236945,190.231393,273.999799,107.229260" />
<polygon fill="#968964" fill-opacity="0.501961" points="247.851391,54.081603,248.212795,63.536647,233.119468,98.250838,251.108910,24.908215" />
<polygon fill="#e6aa98" fill-opacity="0.501961" points="218.428757,136.646106,245.576168,144.933861,208.467682,144.544254,198.946183,100.983833" />
<polygon fill="#fc9461" fill-opacity="0.501961" points="224.596254,103.686580,240.473462,122.849234,227.885570,115.261145,218.239275,107.151250" />
<polygon fill="#c5b7a6" fill-opacity="0.501961" points="129.781386,72.456885,131.521107,155.726458,136.703747,135.178767,142.418314,172.782410" />
<polygon fill="#2c2409" fill-opacity="0.501961" points="230.733452,92.172183,248.683052,-6.410225,240.824116,66.318786,229.301096,79.504483" />
<polygon fill="#c36f41" fill-opacity="0.501961" points="316.114537,56.764258,316.252993,62.732265,321.810776,75.983170,328.377937,24.137938" />
<polygon fill="#ffc79c" fill-opacity="0.501961" points="182.844307,174.656095,180.818684,179.960175,174.797221,171.371390,179.590757,150.720794" />
<polygon fill="#675d52" fill-opacity="0.501961" points="24.904620,-16.000000,27.281233,-5.003740,16.669957,19.347521,11.389506,23.687990" />
<polygon fill="#877a40" fill-opacity="0.501961" points="343.278767,7.976693,405.346702,10.667865,383.876243,-16.000000,329.850912,36.159800" />
<polygon fill="#ca7b69" fill-opacity="0.501961" points="169.182231,119.430826,173.315571,138.807081,169.138950,140.711619,157.302300,119.966154" />
<polygon fill="#7b3221" fill-opacity="0.501961" points="297.505038,246.823141,278.088894,208.603131,273.501485,174.350857,283.352272,168.240252" />
<polygon fill="#fcf0cf" fill-opacity="0.501961" points="470.544908,96.350855,426.116367,164.622180,485.627279,164.900791,494.322275,145.790094" />
<polygon fill="#5a2a0f" fill-opacity="0.501961" points="366.724120,116.473520,371.082311,158.564971,358.555826,148.289547,358.434458,93.351230" />
<polygon fill="#fae3b9" fill-opacity="0.501961" points="406.166520,183.060905,447.387107,171.189274,393.102456,178.420223,405.052589,184.796175" />
<polygon fill="#c1bcb8" fill-opacity="0.501961" points="77.858563,194.820833,43.572543,192.707969,-16.000000,153.480209,13.879129,161.793923" />
<polygon fill="#662000" fill-opacity="0.501961" points="322.538028,125.372018,308.264362,101.283919,318.349532,132.257234,336.436577,155.437992" />
<polygon fill="#928272" fill-opacity="0.501961" points="179.802910,220.218369,-4.805506,143.608941,-6.181111,150.258373,92.736380,196.968516" />
<polygon fill="#6d4210" fill-opacity="0.501961" points="453.992354,194.842811,438.314413,203.806253,418.241240,211.845274,449.620776,203.172360" />
<polygon fill="#1a0401" fill-opacity="0.501961" points="208.184822,173.148523,215.870991,184.626164,198.878543,184.643107,189.007669,185.790119" />
<polygon fill="#aa826b" fill-opacity="0.501961" points="181.575865,220.177570,195.377582,237.593229,201.496595,235.332362,189.807608,202.664630" />
<polygon fill="#231700" fill-opacity="0.501961" points="233.062460,52.160909,221.794822,71.140615,229.831673,38.874160,235.354461,-16.000000" />
<polygon fill="#4b0e02" fill-opacity="0.501961" points="186.631947,197.279792,181.011365,187.060540,177.354669,176.722477,163.477293,177.112160" />
<polygon fill="#561b07" fill-opacity="0.501961" points="231.281909,148.062820,226.186622,145.337565,230.010434,165.857706,234.020558,146.143252" />
<polygon fill="#996f2e" fill-opacity="0.501961" points="503.519395,133.794848,502.821900,105.508960,498.858151,140.401860,475.439583,185.976673" />
<polygon fill="#e8e2d7" fill-opacity="0.501961" points="-12.889170,104.436870,20.412097,28.653451,8.995080,75.434716,4.129103,31.637716" />
<polygon fill="#612c1d" fill-opacity="0.501961" points="141.578581,166.362209,149.784187,185.878658,176.932187,133.459148,188.250736,142.057376" />
<polygon fill="#2c0e00" fill-opacity="0.501961" points="238.673810,207.067106,236.513209,217.586473,246.450939,185.412455,221.126616,187.382210" />
<polygon fill="#e7aa9d" fill-opacity="0.501961" points="163.221990,181.017439,159.104318,163.385195,195.176751,146.042307,168.356402,165.718405" />
<polygon fill="#994830" fill-opacity="0.501961" points="138.945558,108.817182,188.417533,104.159906,260.284413,104.123153,159.795719,93.235755" />
<polygon fill="#ffffff" fill-opacity="0.501961" points="496.298270,61.356607,527.000000,114.671419,527.000000,-16.000000,451.519552,-16.000000" />
<polygon fill="#380400" fill-opacity="0.501961" points="310.392530,219.192871,338.203726,241.729440,326.730775,223.869743,324.109284,234.634816" />
<polygon fill="#f19d75" fill-opacity="0.501961" points="348.049932,87.008653,330.683837,77.321152,327.518949,69.059359,331.802706,64.673621" />
<polygon fill="#d9a794" fill-opacity="0.501961" points="193.929450,147.039724,191.559021,147.383112,161.214241,147.182768,205.079047,158.621568" />
<polygon fill="#e37558" fill-opacity="0.501961" points="388.198655,207.613005,337.451163,168.691731,368.941585,200.796336,388.687292,208.552257" />
<polygon fill="#211000" fill-opacity="0.501961" points="326.132791,58.156122,344.760228,29.643396,351.675738,14.657450,328.395169,40.418588" />
<polygon fill="#7e6e52" fill-opacity="0.501961" points="134.621263,114.945862,135.603030,84.765169,149.580912,107.561129,168.631476,38.680323" />
<polygon fill="#522217" fill-opacity="0.501961" points="156.181250,160.106629,160.222970,163.607983,154.982521,131.187800,168.385389,122.173897" />
<polygon fill="#d1866e" fill-opacity="0.501961" points="257.966977,234.914464,193.254086,194.120554,188.023387,174.241257,183.703491,197.775844" />
<polygon fill="#e0e8df" fill-opacity="0.501961" points="296.182481,89.621748,308.446657,132.811619,291.503955,118.402711,298.108964,114.293058" />
<polygon fill="#e88750" fill-opacity="0.501961" points="312.341388,117.317502,318.389302,134.593799,308.921841,144.737780,310.641901,122.016309" />
<polygon fill="#5b2c08" fill-opacity="0.501961" points="318.302656,34.834065,308.198901,83.352166,341.191373,102.779111,316.226510,70.633267" />
<polygon fill="#b25440" fill-opacity="0.501961" points="352.493033,226.047567,336.442181,243.163443,341.968554,193.833609,353.928174,216.723288" />
<polygon fill="#fb8f72" fill-opacity="0.501961" points="288.999535,200.509299,285.101145,183.885958,289.759199,181.352390,303.116207,205.315806" />
<polygon fill="#b85c28" fill-opacity="0.501961" points="327.259003,61.252757,336.254382,43.272828,347.747585,64.139535,338.767966,66.049846" />
<polygon fill="#575047" fill-opacity="0.501961" points="165.210861,31.288726,183.836268,5.716558,156.742127,32.449196,146.809337,65.509292" />
<polygon fill="#ce8a79" fill-opacity="0.501961" points="223.065690,79.129247,227.545764,91.905624,259.948742,96.255485,199.133919,97.388280" />
<polygon fill="#45300f" fill-opacity="0.501961" points="446.256867,43.514201,466.205331,103.721147,468.799921,97.814284,460.730462,65.715455" />
<polygon fill="#a36c42" fill-opacity="0.501961" points="356.589057,175.175629,423.635464,166.894942,380.684477,160.032435,409.982579,197.943509" />
<polygon fill="#c9987d" fill-opacity="0.501961" points="237.546807,99.988763,280.537702,129.426013,238.834001,111.476628,254.882313,74.800816" />
<polygon fill="#5e554a" fill-opacity="0.501961" points="128.271573,35.938788,105.199399,22.085912,129.525756,8.975144,144.362528,41.199468" />
<polygon fill="#fffdf7" fill-opacity="0.501961" points="122.157445,102.428861,134.146181,169.651628,74.889857,120.683298,107.156419,93.249253" />
<polygon fill="#ffffda" fill-opacity="0.501961" points="445.536803,200.271626,486.581180,150.633095,466.487803,185.001071,429.470884,197.922862" />
<polygon fill="#1e1400" fill-opacity="0.501961" points="205.890630,37.025291,216.380489,-16.000000,208.567323,50.351098,196.244821,80.381128" />
<polygon fill="#4d190c" fill-opacity="0.501961" points="256.316677,184.929688,250.905699,200.545257,267.916123,196.854198,260.190470,212.759174" />
<polygon fill="#824134" fill-opacity="0.501961" points="196.664883,153.016122,199.092676,123.779872,201.451901,131.176921,181.619667,121.334939" />
<polygon fill="#441200" fill-opacity="0.501961" points="233.329821,105.376836,274.324184,138.848667,241.956850,117.906632,221.372137,98.410105" />
<polygon fill="#81291b" fill-opacity="0.501961" points="306.662356,188.277526,301.432140,201.161722,304.221898,202.227159,294.413822,187.282953" />
<polygon fill="#221600" fill-opacity="0.501961" points="203.215340,-3.866612,201.065630,35.861220,189.977769,9.463816,171.136950,86.941353" />
<polygon fill="#fef2ec" fill-opacity="0.501961" points="295.278402,136.130127,341.014622,222.612707,319.920922,211.427699,343.112330,190.131328" />
<polygon fill="#b53d18" fill-opacity="0.501961" points="347.880262,188.791440,292.191413,126.078758,300.139376,157.434219,300.298763,133.577650" />
<polygon fill="#d0c7bb" fill-opacity="0.501961" points="143.394838,92.975784,130.704335,141.939017,141.706057,109.957746,148.987964,72.125716" />
<polygon fill="#833824" fill-opacity="0.501961" points="221.031593,138.045659,212.026750,155.733221,218.824897,187.419428,198.070771,163.553429" />
<polygon fill="#b3b1a9" fill-opacity="0.501961" points="182.089135,215.960875,157.913778,203.918722,101.643993,161.670036,152.017885,194.053149" />
<polygon fill="#342807" fill-opacity="0.501961" points="169.902150,33.754708,154.252244,64.948855,214.946173,-16.000000,198.310132,-5.600037" />
<polygon fill="#a19383" fill-opacity="0.501961" points="152.139518,22.880430,167.696410,18.931764,130.553970,2.967311,168.049828,35.274433" />
<polygon fill="#f8ad99" fill-opacity="0.501961" points="309.196623,132.333185,313.888316,140.423593,261.828977,102.648993,277.782215,108.801663" />
<polygon fill="#742811" fill-opacity="0.501961" points="274.984938,139.407448,233.047112,130.952994,261.510693,134.707966,275.963720,150.642032" />
<polygon fill="#f7efe5" fill-opacity="0.501961" points="123.896669,106.936891,14.300116,90.646210,28.961433,24.290988,25.671134,67.363691" />
<polygon fill="#838464" fill-opacity="0.501961" points="201.823807,73.125557,216.768946,35.755186,205.962725,79.880267,198.632446,79.880225" />
<polygon fill="#cf977e" fill-opacity="0.501961" points="142.462590,192.801977,156.689680,184.951016,173.956793,188.835571,177.854494,192.529681" />
<polygon fill="#f8d1b7" fill-opacity="0.501961" points="251.871942,134.765409,229.509806,144.552595,234.873980,147.120289,259.655162,140.460051" />
<polygon fill="#dfc18b" fill-opacity="0.501961" points="395.275834,64.458694,401.700246,15.249400,398.414090,70.739195,383.743520,93.046556" />
<polygon fill="#9c3c1f" fill-opacity="0.501961" points="325.653344,164.790372,318.570977,162.789064,376.529838,213.884855,372.626077,204.422959" />
<polygon fill="#491000" fill-opacity="0.501961" points="251.975561,143.142189,244.433501,147.133800,239.768786,145.614600,247.465692,160.682271" />
<polygon fill="#4e4e25" fill-opacity="0.501961" points="454.405989,15.896896,406.714091,-16.000000,421.898426,3.308201,427.531337,-16.000000" />
<polygon fill="#a87463" fill-opacity="0.501961" points="322.846700,231.580146,327.670546,225.790041,286.274025,249.000000,292.761264,221.351214" />
<polygon fill="#6f7153" fill-opacity="0.501961" points="183.235017,34.192354,161.135534,81.159685,165.933488,78.761597,172.753671,67.824326" />
<polygon fill="#ebdead" fill-opacity="0.501961" points="391.859133,21.162963,401.496694,15.962723,410.015116,11.898997,390.715342,11.360282" />
<polygon fill="#c67d4f" fill-opacity="0.501961" points="370.790700,124.660023,389.964085,136.395674,380.397639,119.815616,369.878136,76.361312" />
<polygon fill="#340f0a" fill-opacity="0.501961" points="297.093414,150.742602,293.231205,159.211202,292.636707,154.774874,278.568696,126.686258" />
<polygon fill="#7a5d45" fill-opacity="0.501961" points="198.555840,66.898219,181.179496,86.943389,199.464420,8.359870,177.820175,75.131696" />
<polygon fill="#fadfca" fill-opacity="0.501961" points="266.848549,140.501574,273.320642,154.216322,266.128220,148.502204,257.215837,139.019872" />
<polygon fill="#201901" fill-opacity="0.501961" points="185.811033,68.815732,192.767936,62.608347,202.565492,28.094884,195.764659,36.221970" />
<polygon fill="#f6f0e7" fill-opacity="0.501961" points="83.321813,131.638405,95.559262,72.302584,67.099528,121.063055,80.294281,67.527121" />
<polygon fill="#a79c8d" fill-opacity="0.501961" points="108.117265,33.480503,152.164113,53.288702,140.446471,58.448385,103.101100,48.245276" />
<polygon fill="#aa4f3d" fill-opacity="0.501961" points="199.372628,249.000000,237.873630,235.818701,178.829451,211.362642,219.813221,217.071564" />
<polygon fill="#501f12" fill-opacity="0.501961" points="289.979869,214.251448,265.836296,212.549013,280.502189,205.318004,267.063583,177.049255" />
<polygon fill="#777168" fill-opacity="0.501961" points="15.617773,-16.000000,12.138805,1.296814,-1.320060,33.245209,9.543171,-16.000000" />
<polygon fill="#c8c5bd" fill-opacity="0.501961" points="158.729692,53.675874,150.574362,65.585417,168.967355,26.786437,175.872685,19.001366" />
<polygon fill="#e4a591" fill-opacity="0.501961" points="222.904580,206.401338,235.994217,203.298505,187.805468,186.224703,186.180250,187.377047" />
<polygon fill="#481608" fill-opacity="0.501961" points="222.548166,89.568417,210.752656,81.972188,192.591346,90.696507,212.497534,76.801040" />
<polygon fill="#f0c299" fill-opacity="0.501961" points="377.364142,162.957755,377.413235,168.127689,368.985306,163.536727,414.454529,175.098670" />
<polygon fill="#faf4ed" fill-opacity="0.501961" points="-16.000000,60.283420,64.361861,113.446766,73.358943,51.013876,60.310974,89.113358" />
<polygon fill="#cf995a" fill-opacity="0.501961" points="325.005435,-6.959432,313.637307,10.669911,301.410263,29.632369,302.456106,18.088375" />
<polygon fill="#635539" fill-opacity="0.501961" points="302.591921,103.678455,262.955310,53.917674,258.019820,-16.000000,256.588907,80.415056" />
<polygon fill="#582110" fill-opacity="0.501961" points="189.528279,201.938995,211.932444,249.000000,200.827272,205.157789,170.545393,205.984073" />
<polygon fill="#ffffff" fill-opacity="0.501961" points="266.531339,221.495483,240.540874,223.663568,300.438481,249.000000,284.971122,249.000000" />
<polygon fill="#6d675f" fill-opacity="0.501961" points="88.055339,79.027082,95.504457,39.732041,86.228416,68.781600,80.848136,86.677196" />
<polygon fill="#e6daa9" fill-opacity="0.501961" points="383.479291,72.764221,378.265396,97.046602,415.387491,126.951059,371.626070,91.331932" />
<polygon fill="#c7b1bc" fill-opacity="0.501961" points="182.505970,124.978641,182.514402,97.086090,179.334113,116.061451,183.418629,132.704185" />
<polygon fill="#ffffff" fill-opacity="0.501961" points="510.667265,249.000000,517.583327,117.490064,469.354852,198.196260,409.363938,216.819124" />
<polygon fill="#514829" fill-opacity="0.501961" points="452.250708,58.372959,404.651390,14.526905,418.718493,20.637032,432.715099,30.433273" />
<polygon fill="#fffddb" fill-opacity="0.501961" points="407.827308,174.148243,395.835717,174.389593,436.932640,161.141766,421.912919,172.050776" />
<polygon fill="#561c06" fill-opacity="0.501961" points="242.711434,174.620287,230.789217,166.140321,225.340319,156.085044,243.073450,171.255635" />
<polygon fill="#97572e" fill-opacity="0.501961" points="400.198885,213.031183,363.151410,166.605463,416.786232,176.982151,354.722574,174.794709" />
<polygon fill="#f7efe9" fill-opacity="0.501961" points="278.027254,196.148407,273.615707,207.799404,263.450550,210.416799,266.637484,203.167398" />
<polygon fill="#88817b" fill-opacity="0.501961" points="12.846845,30.883880,10.237630,54.544229,3.125821,54.261788,17.836178,13.232655" />
<polygon fill="#40391f" fill-opacity="0.501961" points="443.475975,20.935377,410.821735,1.198940,427.391231,13.708292,456.972562,36.364576" />
<polygon fill="#fcf0de" fill-opacity="0.501961" points="99.276320,-16.000000,95.347889,6.702155,82.342326,-16.000000,78.397137,7.808467" />
<polygon fill="#2c1e04" fill-opacity="0.501961" points="246.448003,81.986947,257.875539,34.276075,253.958709,-2.029360,251.216245,49.302418" />
<polygon fill="#bbb4aa" fill-opacity="0.501961" points="23.744031,51.354193,22.719389,30.381642,18.243508,41.580009,48.190294,-12.370460" />
<polygon fill="#ffefca" fill-opacity="0.501961" points="500.763989,130.727739,478.620100,56.201459,485.350773,118.393150,406.396657,65.248605" />
<polygon fill="#76674a" fill-opacity="0.501961" points="195.648167,55.834851,206.457293,20.507934,200.025360,64.288859,187.136294,87.884375" />
<polygon fill="#571c10" fill-opacity="0.501961" points="248.110365,215.018212,259.909569,212.161682,262.349959,196.659542,257.778564,206.182415" />
<polygon fill="#ffffff" fill-opacity="0.501961" points="363.022790,213.591619,447.095463,249.000000,357.851900,242.367259,352.377979,197.368062" />
<polygon fill="#fff6d7" fill-opacity="0.501961" points="458.733307,82.060192,397.469292,60.313063,403.722593,21.927910,438.528292,47.149886" />
<polygon fill="#fffffa" fill-opacity="0.501961" points="218.739222,220.199887,215.708357,225.735166,263.491567,245.470520,245.350147,244.838025" />
<polygon fill="#d3adb4" fill-opacity="0.501961" points="195.752633,166.871177,201.615054,173.458355,197.765621,179.020443,190.753929,170.515490" />
<polygon fill="#a75528" fill-opacity="0.501961" points="356.498118,137.277163,332.150158,159.738546,324.989714,146.306140,337.540264,123.683040" />
<polygon fill="#ffffd9" fill-opacity="0.501961" points="448.960400,13.396477,472.369369,41.586871,423.787308,5.343481,427.056397,-0.191577" />
<polygon fill="#916251" fill-opacity="0.501961" points="231.182848,204.643325,191.497468,175.442202,217.873624,191.999777,225.466108,194.223846" />
<polygon fill="#230000" fill-opacity="0.501961" points="159.681644,109.861991,161.977723,119.423356,142.657447,109.808368,141.543130,112.922554" />
<polygon fill="#450d00" fill-opacity="0.501961" points="153.573243,79.633128,191.949044,86.887528,181.811535,78.620854,164.378971,92.020854" />
<polygon fill="#914a32" fill-opacity="0.501961" points="210.083251,202.134081,224.809614,213.709663,291.301113,212.138013,241.912278,211.424271" />
<polygon fill="#7b7b7a" fill-opacity="0.501961" points="132.504480,97.229665,91.320855,82.122628,124.915709,102.723910,127.665835,108.242115" />
<polygon fill="#6d5f4e" fill-opacity="0.501961" points="123.979234,184.046983,166.761663,207.487954,140.998146,203.590224,34.769326,155.316690" />
<polygon fill="#7f5f31" fill-opacity="0.501961" points="434.422754,198.817403,442.367981,205.476227,426.896957,212.081781,384.398900,207.359554" />
<polygon fill="#742d17" fill-opacity="0.501961" points="150.415390,187.642163,155.425748,168.476363,162.178375,187.890349,144.138313,177.346610" />
<polygon fill="#8c867e" fill-opacity="0.501961" points="66.406385,39.918863,72.430234,81.922516,85.186860,39.941093,58.979478,80.534291" />
<polygon fill="#ffffff" fill-opacity="0.501961" points="527.000000,0.940146,510.187961,83.871315,472.802769,19.254913,423.186649,-16.000000" />
<polygon fill="#3f3b2b" fill-opacity="0.501961" points="475.259317,63.247268,479.603629,103.654540,482.118387,86.635618,457.721438,39.031311" />
<polygon fill="#511602" fill-opacity="0.501961" points="239.050628,113.254719,227.663155,97.237696,244.698774,133.075264,239.771337,133.317520" />
<polygon fill="#973f22" fill-opacity="0.501961" points="210.938773,105.501123,217.810104,136.605705,202.771020,97.062296,249.536721,99.995259" />
<polygon fill="#451d0f" fill-opacity="0.501961" points="212.971067,164.843427,179.067712,159.078693,197.103943,156.068825,195.729990,163.414054" />
<polygon fill="#642a08" fill-opacity="0.501961" points="344.239933,168.077617,327.690798,145.195338,370.864600,185.802862,349.189407,174.578938" />
<polygon fill="#887b43" fill-opacity="0.501961" points="346.809882,47.962858,396.585721,61.299527,403.412962,54.762667,367.842834,85.768508" />
<polygon fill="#cccac3" fill-opacity="0.501961" points="87.055729,146.050591,170.484889,211.427682,143.211814,183.125944,113.287672,176.940091" />
<polygon fill="#3c1c05" fill-opacity="0.501961" points="354.700982,126.823798,356.065140,117.313772,370.401620,125.802895,366.066185,137.006597" />
<polygon fill="#f0b4a6" fill-opacity="0.501961" points="247.195100,183.407202,242.812631,180.763437,210.454670,158.532995,214.947774,150.066650" />
<polygon fill="#c9654d" fill-opacity="0.501961" points="296.690250,166.550750,302.148768,154.931288,278.920501,174.602657,286.477228,141.941394" />
<polygon fill="#a86839" fill-opacity="0.501961" points="368.704106,110.950649,307.542929,93.868328,305.292262,102.265113,376.725268,103.870242" />
<polygon fill="#dea38b" fill-opacity="0.501961" points="251.766577,188.398508,248.741642,224.536453,242.916613,209.347424,249.287224,190.409733" />
<polygon fill="#dbb56d" fill-opacity="0.501961" points="444.860248,0.478055,468.877022,18.320023,472.929328,19.957753,479.445852,32.719513" />
<polygon fill="#e6d6bd" fill-opacity="0.501961" points="486.063050,228.092483,421.913447,205.461561,448.407114,198.591984,425.806224,206.437800" />
<polygon fill="#e6c6b6" fill-opacity="0.501961" points="187.347215,125.745550,183.995036,115.632000,185.733967,113.872235,189.322898,116.848574" />
<polygon fill="#ffffff" fill-opacity="0.501961" points="503.398034,80.445470,523.684188,87.472342,454.668271,249.000000,505.088276,173.197901" />
<polygon fill="#533727" fill-opacity="0.501961" points="294.735836,116.911507,296.471573,105.950134,288.356487,66.731053,291.385289,118.155752" />
<polygon fill="#d5816e" fill-opacity="0.501961" points="325.811323,228.052216,315.651157,213.329058,324.881874,199.229324,319.836047,228.572544" />
<polygon fill="#8e847a" fill-opacity="0.501961" points="39.208803,33.157753,38.862182,64.621766,41.736974,66.653526,48.899565,20.762662" />
<polygon fill="#ddc390" fill-opacity="0.501961" points="426.250596,173.149257,432.686951,186.764979,412.411487,190.620135,445.673295,159.912181" />
<polygon fill="#382d1a" fill-opacity="0.501961" points="482.886462,44.724229,452.536900,7.917539,478.976434,49.114453,496.454610,72.306423" />
<polygon fill="#6b3f2f" fill-opacity="0.501961" points="302.310172,205.605820,283.962248,226.549827,317.882324,203.796691,319.608443,212.389751" />
<polygon fill="#271f10" fill-opacity="0.501961" points="494.116708,88.121214,494.241516,110.907934,499.516058,107.877111,498.986682,97.318708" />
<polygon fill="#48330d" fill-opacity="0.501961" points="465.613763,191.448450,443.337536,204.733557,480.364073,176.306888,474.567357,184.977575" />
<polygon fill="#f4e0bc" fill-opacity="0.501961" points="502.965813,106.277565,476.263465,135.945919,464.146083,176.715872,482.168028,156.939673" />
<polygon fill="#892d12" fill-opacity="0.501961" points="170.079990,122.234673,175.384225,80.721409,181.499077,98.946944,176.292069,120.187693" />
<polygon fill="#552304" fill-opacity="0.501961" points="265.701058,163.976452,256.354939,145.297016,263.176372,145.840557,265.152012,151.804615" />
<polygon fill="#989995" fill-opacity="0.501961" points="95.326038,171.838571,123.261914,181.490358,103.855784,166.556488,-3.107314,123.131560" />
<polygon fill="#f9e7c7" fill-opacity="0.501961" points="457.617568,78.931322,460.889085,131.986395,440.185728,117.745109,443.930015,50.781443" />
<polygon fill="#eeb2a6" fill-opacity="0.501961" points="223.487274,141.389741,228.428601,134.876633,222.664563,113.055871,214.126150,103.663119" />
<polygon fill="#642903" fill-opacity="0.501961" points="340.569201,93.710240,346.287947,121.190511,333.231709,108.136046,341.576187,104.012267" />
<polygon fill="#ce996d" fill-opacity="0.501961" points="300.402005,22.429892,298.979224,31.204257,303.878772,35.658506,307.436557,15.171627" />
<polygon fill="#726d66" fill-opacity="0.501961" points="33.798267,52.772760,31.576729,38.924490,54.855852,-16.000000,26.007786,63.681006" />
<polygon fill="#dfbcaa" fill-opacity="0.501961" points="138.469626,122.851357,153.715591,116.414651,149.694586,116.035268,121.746690,131.207002" />
<polygon fill="#fffcf7" fill-opacity="0.501961" points="297.868086,98.984909,303.039624,129.969478,292.913997,119.183083,298.467471,111.767098" />
<polygon fill="#a33b29" fill-opacity="0.501961" points="242.378798,173.381636,249.318979,176.806578,263.734714,174.243532,237.263990,168.253018" />
<polygon fill="#47230a" fill-opacity="0.501961" points="161.908019,102.798464,168.383056,95.512823,144.472723,97.850735,162.214990,99.801496" />
<polygon fill="#692d02" fill-opacity="0.501961" points="309.859867,85.661525,328.637046,129.414864,337.236689,129.156078,324.200471,113.163060" />
<polygon fill="#574322" fill-opacity="0.501961" points="482.520022,105.472737,479.720591,117.645669,480.831310,84.278668,482.662444,102.281231" />
<polygon fill="#6a655c" fill-opacity="0.501961" points="78.816068,-16.000000,59.358187,27.318505,49.842760,68.393709,72.898247,3.540296" />
<polygon fill="#0f0000" fill-opacity="0.501961" points="139.913824,135.296720,143.103094,153.020921,148.625994,152.361397,148.603789,134.015150" />
<polygon fill="#ce9d89" fill-opacity="0.501961" points="278.333763,130.358717,233.658714,103.843811,264.752253,114.274302,283.352646,165.864426" />
<polygon fill="#d2a085" fill-opacity="0.501961" points="157.612584,154.247871,155.586866,135.138375,154.217703,134.930708,150.821306,148.423216" />
<polygon fill="#fff6d5" fill-opacity="0.501961" points="479.081390,110.669383,459.212260,43.514583,410.666417,8.655402,452.808675,47.987775" />
<polygon fill="#e8c0b2" fill-opacity="0.501961" points="185.548347,153.505388,208.844929,154.509366,184.695476,149.234478,159.946312,162.928264" />
<polygon fill="#b5a87e" fill-opacity="0.501961" points="367.585839,180.815774,404.339610,198.114963,429.487181,191.922096,381.523510,193.236191" />
<polygon fill="#210100" fill-opacity="0.501961" points="198.801660,149.702870,209.373188,153.741698,202.110968,136.827716,198.222870,131.401394" />
<polygon fill="#fffffe" fill-opacity="0.501961" points="309.183554,152.590757,340.087168,199.102647,293.629689,181.907793,306.257361,147.193487" />
<polygon fill="#b56957" fill-opacity="0.501961" points="200.480878,104.111118,177.469506,67.262245,202.212154,80.138964,176.929010,92.089293" />
<polygon fill="#4f1604" fill-opacity="0.501961" points="254.352729,135.369634,251.955254,120.785297,261.787423,125.973597,273.984531,139.033279" />
<polygon fill="#c16035" fill-opacity="0.501961" points="162.035193,103.320188,170.641510,96.016895,172.416223,119.331507,161.906845,121.183957" />
<polygon fill="#c99080" fill-opacity="0.501961" points="386.609835,219.294219,408.683480,228.898541,368.031643,205.949232,354.890353,203.043501" />
<polygon fill="#ab4726" fill-opacity="0.501961" points="194.859429,107.920733,222.319308,175.214025,214.257028,164.710205,197.155077,121.961825" />
<polygon fill="#292c22" fill-opacity="0.501961" points="465.831535,106.820166,454.350520,70.715191,448.735501,50.502344,463.487690,77.468802" />
<polygon fill="#e7af8a" fill-opacity="0.501961" points="372.197915,99.694148,336.346160,65.349333,342.789423,65.381501,365.883698,84.996217" />
<polygon fill="#ca9789" fill-opacity="0.501961" points="297.413556,143.094319,293.574871,165.868275,305.269332,144.903804,299.769141,153.237203" />
<polygon fill="#403e17" fill-opacity="0.501961" points="427.213466,208.907089,405.225673,212.151422,391.289969,208.223547,401.751352,207.622613" />
<polygon fill="#c99589" fill-opacity="0.501961" points="280.889398,216.902511,287.018823,226.065671,214.151964,208.080824,254.468812,221.453578" />
<polygon fill="#6f491c" fill-opacity="0.501961" points="467.280134,189.256981,431.027435,206.180073,425.062671,211.715550,454.523356,200.268453" />
<polygon fill="#e0a393" fill-opacity="0.501961" points="240.783924,149.834184,245.040201,163.221451,230.004606,154.873454,235.887229,150.141793" />
<polygon fill="#5d261e" fill-opacity="0.501961" points="427.061077,228.313717,444.501104,245.543119,395.311859,216.379495,413.134165,218.388477" />
<polygon fill="#d09680" fill-opacity="0.501961" points="307.192302,213.129787,306.618476,217.375236,287.317550,232.471672,296.345512,219.547927" />
<polygon fill="#d1cbc5" fill-opacity="0.501961" points="90.010731,67.125206,127.395502,77.349043,133.849289,83.572782,101.889382,76.145764" />
<polygon fill="#652f20" fill-opacity="0.501961" points="181.007351,148.213835,144.199627,171.688943,183.078308,143.206575,158.298057,142.923625" />
<polygon fill="#bbb4ac" fill-opacity="0.501961" points="25.760981,36.898692,-7.830862,41.949260,19.652272,-10.037446,9.291842,28.787910" />
<polygon fill="#854d23" fill-opacity="0.501961" points="392.007141,209.461511,413.989475,203.857199,387.287102,195.525943,385.988043,201.559911" />
<polygon fill="#917f52" fill-opacity="0.501961" points="381.765644,51.748277,397.988937,48.713315,396.980192,52.245497,382.192208,99.844211" />
<polygon fill="#bf6e49" fill-opacity="0.501961" points="144.242849,91.314356,160.453789,89.386516,143.942314,107.475156,158.560273,104.410855" />
<polygon fill="#893a2c" fill-opacity="0.501961" points="354.642643,212.944808,341.128786,192.549008,339.404723,204.433032,337.376762,204.709948" />
<polygon fill="#705938" fill-opacity="0.501961" points="250.763805,47.641042,245.346444,50.575422,248.063061,-16.000000,251.377358,-6.790814" />
<polygon fill="#5d2f08" fill-opacity="0.501961" points="319.531183,81.810240,292.098469,84.099528,327.230341,77.559013,337.020249,8.570504" />
<polygon fill="#de9384" fill-opacity="0.501961" points="335.413337,196.546595,338.666296,224.318876,344.449664,213.213498,339.456071,204.372018" />
<polygon fill="#504a41" fill-opacity="0.501961" points="105.233744,-16.000000,73.740163,20.814241,76.654285,20.833082,77.712869,22.907013" />
<polygon fill="#291f00" fill-opacity="0.501961" points="355.799522,-16.000000,311.967446,14.729863,318.258307,4.670364,343.097883,-16.000000" />
<polygon fill="#74220e" fill-opacity="0.501961" points="249.516027,108.850280,250.755891,97.255541,274.473526,123.759095,273.198954,113.217292" />
<polygon fill="#6d210e" fill-opacity="0.501961" points="194.502924,127.975194,189.662582,135.849066,181.705980,115.553564,183.637920,122.639074" />
<polygon fill="#746e65" fill-opacity="0.501961" points="18.774360,62.496921,25.322497,16.151180,42.651559,-16.000000,16.678477,51.971211" />
<polygon fill="#ba996c" fill-opacity="0.501961" points="387.481833,146.768064,411.668085,166.946816,437.488882,157.859006,420.364981,168.114629" />
<polygon fill="#782805" fill-opacity="0.501961" points="252.354085,214.583292,241.567425,209.445290,244.259046,191.693650,233.393828,213.189034" />
<polygon fill="#6a300e" fill-opacity="0.501961" points="364.012567,171.699529,343.010503,152.328428,342.675106,149.484659,383.110156,180.571902" />
<polygon fill="#ffffff" fill-opacity="0.501961" points="313.036538,1.514292,308.564811,5.640327,292.645726,-16.000000,330.325361,-16.000000" />
<polygon fill="#dfd5c5" fill-opacity="0.501961" points="117.368238,15.300671,123.966357,-16.000000,103.076442,10.180079,134.038113,-16.000000" />
<polygon fill="#fff7d9" fill-opacity="0.501961" points="466.272498,103.394406,380.785141,101.240661,387.568427,136.537768,482.139959,143.928518" />
<polygon fill="#60291b" fill-opacity="0.501961" points="285.447675,205.040750,262.590443,217.807871,291.538557,214.840323,295.223015,249.000000" />
<polygon fill="#9b724d" fill-opacity="0.501961" points="414.265783,175.837642,405.331722,176.075425,430.538721,170.348956,432.139635,171.390738" />
<polygon fill="#534620" fill-opacity="0.501961" points="420.980215,9.506206,441.943423,19.815186,415.688450,2.717555,412.453270,6.092215" />
<polygon fill="#8d4c30" fill-opacity="0.501961" points="150.652477,191.508012,160.556225,201.914055,179.901015,187.150060,187.837876,197.445349" />
<polygon fill="#49320a" fill-opacity="0.501961" points="300.273093,80.091623,297.386472,87.224152,306.441434,73.243414,304.362109,54.213703" />
<polygon fill="#61522b" fill-opacity="0.501961" points="391.828911,43.853386,398.881337,30.153079,378.934593,6.473225,364.317322,29.608306" />
<polygon fill="#ecd5d2" fill-opacity="0.501961" points="315.187459,206.498512,316.168972,208.978196,300.297051,202.679661,310.027683,200.635612" />
<polygon fill="#ffffde" fill-opacity="0.501961" points="422.023321,185.658736,453.050829,173.766614,429.851168,187.343949,424.941118,185.825449" />
<polygon fill="#f5efe7" fill-opacity="0.501961" points="-16.000000,23.016881,40.108110,138.420120,35.942363,50.591804,13.991268,117.349767" />
<polygon fill="#aea883" fill-opacity="0.501961" points="232.407550,68.049244,227.969199,81.007264,222.896716,90.354727,222.477154,79.949874" />
<polygon fill="#a67a4f" fill-opacity="0.501961" points="391.025545,190.372313,432.597919,181.542645,395.347666,184.382294,409.461969,186.552554" />
<polygon fill="#b06f5a" fill-opacity="0.501961" points="192.431131,187.926133,188.201899,162.516203,187.502494,197.630802,170.751482,206.164100" />
<polygon fill="#615733" fill-opacity="0.501961" points="460.162246,179.911073,418.583955,198.914334,425.237546,191.960362,469.092039,172.000205" />
<polygon fill="#fff7d3" fill-opacity="0.501961" points="439.102354,5.448532,482.148673,58.060256,490.507366,82.092537,467.500523,47.811426" />
<polygon fill="#ffffff" fill-opacity="0.501961" points="1.943726,249.000000,-5.088428,195.863484,69.684602,225.652742,185.202404,232.181644" />
<polygon fill="#dcd7ce" fill-opacity="0.501961" points="135.006099,173.235207,134.331861,125.730134,143.909741,187.153096,-4.895836,104.561614" />
<polygon fill="#4c4a34" fill-opacity="0.501961" points="301.305507,82.541943,286.405171,77.211125,298.319570,87.296945,303.685604,120.169248" />
<polygon fill="#554427" fill-opacity="0.501961" points="230.503001,12.432992,212.047359,46.762051,216.164713,-2.343891,228.216327,52.180985" />
<polygon fill="#604e34" fill-opacity="0.501961" points="259.238359,51.701319,293.873486,59.479584,244.376968,94.145368,256.937785,97.265242" />
<polygon fill="#dcd9d6" fill-opacity="0.501961" points="130.172913,228.812405,67.027049,209.343520,-16.000000,172.207857,-6.366936,165.557403" />
<polygon fill="#d6a092" fill-opacity="0.501961" points="211.914029,139.689683,192.756277,103.911898,205.342513,106.742892,212.689962,121.758917" />
<polygon fill="#c36343" fill-opacity="0.501961" points="228.138421,222.017684,195.970955,194.581308,229.772879,229.720487,310.929288,249.000000" />
<polygon fill="#8c6f31" fill-opacity="0.501961" points="500.440024,77.805013,501.622091,83.907217,503.321242,70.314642,496.446965,82.177518" />
<polygon fill="#c6644c" fill-opacity="0.501961" points="247.006356,122.501868,244.379505,138.464526,252.655561,132.889033,250.192396,123.204624" />
<polygon fill="#c28b56" fill-opacity="0.501961" points="345.876823,127.051754,345.046748,87.278796,354.079322,127.687131,334.486700,113.714116" />
<polygon fill="#231800" fill-opacity="0.501961" points="223.947692,28.158567,224.185909,35.126455,217.097959,58.752907,221.492068,-16.000000" />
<polygon fill="#7f7262" fill-opacity="0.501961" points="164.823569,21.606841,157.253623,38.022970,113.130357,16.769642,129.361481,5.769770" />
<polygon fill="#f3d4ac" fill-opacity="0.501961" points="376.514687,162.089300,368.048176,163.361430,342.079247,136.466317,382.647974,173.097070" />
<polygon fill="#fcf3d2" fill-opacity="0.501961" points="460.274468,158.893185,477.664746,110.099816,476.216616,83.548734,470.693641,66.728765" />
<polygon fill="#5b1908" fill-opacity="0.501961" points="319.963045,195.530828,317.405709,208.454791,316.690851,199.816208,296.633222,191.443526" />
<polygon fill="#e48b54" fill-opacity="0.501961" points="186.587438,133.267203,174.167457,123.151454,165.073810,130.661671,184.806147,136.630183" />
<polygon fill="#f1ac9c" fill-opacity="0.501961" points="265.584422,178.797621,268.404968,149.083259,272.137478,168.134100,255.059187,182.072166" />
<polygon fill="#9d5c4f" fill-opacity="0.501961" points="340.506464,220.908971,291.154259,200.866510,280.512661,182.198934,285.287563,206.601736" />
<polygon fill="#461007" fill-opacity="0.501961" points="309.869645,217.882029,318.734243,222.964120,328.321731,244.255502,312.785499,220.475796" />
<polygon fill="#ece4d6" fill-opacity="0.501961" points="113.909624,-9.284932,100.156511,15.599865,107.714939,9.381848,114.089197,-7.315265" />
<polygon fill="#efe1c8" fill-opacity="0.501961" points="192.284259,-5.997693,174.591024,21.445548,208.937366,-16.000000,215.539461,-6.950904" />
<polygon fill="#d3ae68" fill-opacity="0.501961" points="487.794562,45.260846,501.372904,73.599791,469.191269,22.786767,481.835876,35.433162" />
<polygon fill="#60431a" fill-opacity="0.501961" points="461.286174,195.957668,429.310341,209.280271,467.292401,187.550575,466.137889,191.737284" />
<polygon fill="#fefbdb" fill-opacity="0.501961" points="418.803759,8.346848,442.437899,26.837520,412.493426,16.403791,404.604810,12.752649" />
<polygon fill="#5e4725" fill-opacity="0.501961" points="473.302322,58.689578,463.382858,44.702134,482.208090,94.182021,480.357505,77.805817" />
<polygon fill="#381204" fill-opacity="0.501961" points="141.945058,149.709503,161.188877,103.275667,160.924053,116.570462,142.557802,150.057255" />
<polygon fill="#685335" fill-opacity="0.501961" points="240.716586,7.074327,235.975468,-16.000000,236.927667,54.374243,239.355231,43.325041" />
<polygon fill="#e3a781" fill-opacity="0.501961" points="227.646066,114.140011,234.794380,116.460471,241.102179,132.288086,233.552639,120.403160" />
<polygon fill="#fba78a" fill-opacity="0.501961" points="328.865165,198.531206,315.778408,211.698753,322.052091,209.856947,323.750177,214.664375" />
<polygon fill="#fdfbf7" fill-opacity="0.501961" points="302.230293,158.362410,326.801016,199.959625,328.393599,172.723094,301.054342,144.581687" />
<polygon fill="#d4cfc6" fill-opacity="0.501961" points="69.183047,74.202971,75.620255,55.460237,66.076124,54.445065,73.512501,106.374003" />
<polygon fill="#92713b" fill-opacity="0.501961" points="472.719357,184.744406,495.049297,151.235686,499.099377,126.632444,491.054229,162.774143" />
<polygon fill="#4a2c1d" fill-opacity="0.501961" points="207.943579,208.616586,167.023142,202.817105,181.246534,211.938076,187.533803,203.295134" />
<polygon fill="#f8f4ed" fill-opacity="0.501961" points="71.899281,81.134202,88.858912,156.741603,101.566126,172.241394,93.871218,156.718142" />
<polygon fill="#ac3d16" fill-opacity="0.501961" points="310.457542,143.372203,357.232471,196.936021,305.314092,146.982869,279.412824,121.689407" />
<polygon fill="#fae5bd" fill-opacity="0.501961" points="414.351576,201.374745,443.026689,194.095482,426.367958,199.973248,410.042092,200.073084" />
<polygon fill="#230902" fill-opacity="0.501961" points="202.923437,178.122665,216.598542,182.844384,188.548659,180.049951,201.197036,190.740537" />
<polygon fill="#a6a29b" fill-opacity="0.501961" points="85.361058,71.028007,133.569030,100.396657,156.106936,54.918224,146.108916,91.642387" />
<polygon fill="#bdbbb3" fill-opacity="0.501961" points="40.790573,137.615313,35.081044,105.854341,48.319995,147.245048,-16.000000,108.495755" />
<polygon fill="#f4e9da" fill-opacity="0.501961" points="95.266410,5.284111,88.372253,12.855355,99.568287,-11.172869,107.879968,-16.000000" />
<polygon fill="#d1bf91" fill-opacity="0.501961" points="400.555379,2.505231,405.126345,6.156419,414.473985,-16.000000,300.622718,-16.000000" />
<polygon fill="#fefcd5" fill-opacity="0.501961" points="435.698601,203.435470,466.508878,186.517361,467.978656,178.426567,442.306301,194.047461" />
<polygon fill="#552818" fill-opacity="0.501961" points="162.416186,140.374998,150.090069,188.877883,144.594897,173.162682,164.764584,162.035202" />
<polygon fill="#c97262" fill-opacity="0.501961" points="218.495547,215.742685,216.059668,226.976370,211.514356,231.322436,208.616181,220.864764" />
<polygon fill="#d0c0b2" fill-opacity="0.501961" points="135.419154,215.084321,185.482380,221.705864,218.159803,249.000000,174.594255,224.136631" />
<polygon fill="#805d52" fill-opacity="0.501961" points="195.968742,146.745144,194.142825,119.201712,201.900698,148.405730,164.380613,148.242930" />
<polygon fill="#d3aea2" fill-opacity="0.501961" points="280.177156,151.399731,277.577896,162.995033,285.427592,145.929825,276.475387,122.268635" />
<polygon fill="#f5cbb2" fill-opacity="0.501961" points="227.137283,147.079939,260.169630,138.504663,246.046228,136.442446,231.048387,141.181611" />
<polygon fill="#a3a097" fill-opacity="0.501961" points="52.612292,155.308337,31.930387,131.286532,24.673012,106.410904,36.823249,133.960731" />
<polygon fill="#413f3c" fill-opacity="0.501961" points="41.628877,6.264346,46.319213,8.859211,60.540911,-16.000000,53.910416,-16.000000" />
<polygon fill="#bfb9af" fill-opacity="0.501961" points="66.340675,155.040963,54.561611,112.669982,69.467671,152.651523,97.871000,166.981707" />
<polygon fill="#ca9b51" fill-opacity="0.501961" points="504.484326,92.400479,499.171074,104.184201,501.361627,87.584924,502.911754,122.492256" />
<polygon fill="#9d5831" fill-opacity="0.501961" points="316.148364,68.596953,349.002772,91.458790,306.754100,103.529440,339.953244,105.639399" />
<polygon fill="#c2bcb2" fill-opacity="0.501961" points="66.008674,119.039530,82.716358,163.610431,70.693265,140.630953,76.894697,164.488695" />
<polygon fill="#3d3a35" fill-opacity="0.501961" points="66.751442,19.343062,65.821406,13.745954,73.483785,4.881030,74.916181,7.678225" />
<polygon fill="#905c44" fill-opacity="0.501961" points="148.885833,129.879209,166.139244,118.398972,152.141876,123.164924,145.347840,120.902763" />
<polygon fill="#f2ede5" fill-opacity="0.501961" points="3.190653,38.479421,1.072172,96.331442,13.971131,129.987849,-11.915336,88.613743" />
<polygon fill="#bc8054" fill-opacity="0.501961" points="318.225157,26.577420,310.815112,57.194352,312.624113,28.132146,332.436941,-0.615044" />
<polygon fill="#a28f6e" fill-opacity="0.501961" points="251.403659,87.520674,244.479243,98.903060,241.895415,94.246819,256.927100,63.624084" />
<polygon fill="#ac6237" fill-opacity="0.501961" points="311.243157,64.085265,311.848927,29.072664,308.283517,45.875788,304.979118,89.084746" />
<polygon fill="#d46d5b" fill-opacity="0.501961" points="328.469578,223.123925,349.171649,249.000000,329.623523,217.355255,311.287844,215.085137" />
<polygon fill="#d4a184" fill-opacity="0.501961" points="224.070817,89.811486,232.444983,97.768677,217.199572,72.112291,218.046754,78.389820" />
<polygon fill="#c36340" fill-opacity="0.501961" points="333.494887,166.535407,307.358611,148.452927,351.505511,182.952799,319.502186,133.968036" />
<polygon fill="#7c2811" fill-opacity="0.501961" points="254.153348,100.817452,276.370022,125.321548,282.923609,134.680474,298.629419,132.577242" />
<polygon fill="#dad2c5" fill-opacity="0.501961" points="133.865355,114.844947,109.714347,93.584684,127.145046,118.664703,135.320410,94.121180" />
<polygon fill="#656244" fill-opacity="0.501961" points="228.756704,12.755544,217.881197,68.935403,220.771444,73.591424,226.239046,45.474240" />
<polygon fill="#211400" fill-opacity="0.501961" points="320.960709,29.708559,332.305096,11.766405,341.189857,7.882480,318.342797,35.762563" />
<polygon fill="#dc8663" fill-opacity="0.501961" points="150.559575,161.536082,138.677105,161.211219,139.096656,150.835164,149.237105,155.401411" />
<polygon fill="#d7a49d" fill-opacity="0.501961" points="275.599274,212.392081,249.206251,215.263892,242.364806,215.833992,240.288293,223.405567" />
<polygon fill="#83411a" fill-opacity="0.501961" points="352.567490,72.241403,348.905258,49.421649,318.870463,37.297104,328.747391,34.811295" />
<polygon fill="#b7b2a8" fill-opacity="0.501961" points="50.809740,52.997737,42.670393,52.462747,58.735562,13.517864,71.785854,-10.197641" />
<polygon fill="#312206" fill-opacity="0.501961" points="245.731582,0.962010,235.135800,76.650727,248.125528,28.977782,234.872762,-16.000000" />
<polygon fill="#b1855a" fill-opacity="0.501961" points="295.153794,88.973523,294.453976,77.041307,304.935938,27.991750,297.125412,90.295651" />
<polygon fill="#f3d4d4" fill-opacity="0.501961" points="226.780354,171.308689,257.650251,180.794128,232.927535,176.355406,216.417990,154.356704" />
<polygon fill="#1c0801" fill-opacity="0.501961" points="189.227257,157.754478,203.518831,164.828720,196.231818,165.198423,194.142468,156.782271" />
<polygon fill="#140c00" fill-opacity="0.501961" points="341.522604,24.568087,328.076424,44.367484,361.399848,16.944485,356.448414,15.821062" />
</g>
</svg>